<?xml version="1.0" standalone="no"?>
<!DOCTYPE svg PUBLIC "-//W3C//DTD SVG 20010904//EN"
 "http://www.w3.org/TR/2001/REC-SVG-20010904/DTD/svg10.dtd">
<svg version="1.0" xmlns="http://www.w3.org/2000/svg"
 width="440.000000pt" height="440.000000pt" viewBox="0 0 440.000000 440.000000"
 preserveAspectRatio="xMidYMid meet">
<metadata>
Created by potrace 1.11, written by Peter Selinger 2001-2013
</metadata>
<g transform="translate(0.000000,440.000000) scale(0.100000,-0.100000)"
fill="#000000" stroke="none">
<path d="M2971 4050 c-1 -9 -46 -36 -106 -65 -57 -27 -120 -63 -138 -80 -19
-16 -56 -50 -83 -75 -27 -24 -53 -43 -57 -42 -5 1 -5 -2 -2 -8 4 -6 -1 -18
-11 -25 -11 -8 -15 -15 -11 -15 4 0 -6 -20 -23 -44 -16 -25 -30 -51 -30 -58 0
-10 -3 -9 -10 2 -8 11 -9 8 -4 -11 3 -15 1 -30 -5 -33 -6 -4 -11 -15 -11 -24
0 -9 -7 -30 -15 -46 -8 -15 -15 -36 -15 -46 0 -10 -7 -26 -17 -35 -12 -13 -13
-19 -4 -25 10 -5 9 -9 -3 -13 -9 -4 -16 -12 -16 -19 0 -9 3 -8 10 2 8 12 10
12 10 1 0 -19 30 -39 50 -34 9 3 23 29 35 71 10 37 29 85 42 107 12 22 23 47
23 56 0 22 39 97 41 79 0 -8 5 0 11 19 10 35 120 151 144 151 7 0 14 4 16 8 7
18 69 53 80 46 7 -4 10 -3 5 1 -9 11 51 37 66 28 6 -3 7 -1 3 5 -4 7 -1 12 9
12 10 0 14 -5 10 -12 -4 -7 1 -4 10 7 9 11 17 20 18 20 9 0 34 -31 30 -37 -2
-5 2 -8 9 -8 21 0 81 -57 74 -69 -4 -6 -2 -9 7 -5 9 3 28 -24 61 -89 39 -77
47 -101 42 -128 -4 -23 -3 -28 2 -14 7 16 11 10 20 -30 21 -96 23 -111 32
-195 5 -47 10 -90 11 -95 1 -6 18 -11 37 -12 19 0 29 3 22 7 -9 5 -9 9 -1 14
16 10 14 134 -4 212 -9 36 -14 69 -11 71 3 3 1 14 -5 24 -7 14 -6 19 3 19 8 0
6 5 -4 11 -10 5 -18 15 -18 20 0 6 5 7 10 4 19 -12 10 7 -11 24 -12 9 -23 30
-24 45 -2 16 -8 32 -13 35 -6 3 -13 18 -17 32 -3 14 -24 49 -46 77 -21 29 -39
56 -39 61 0 5 -16 16 -35 25 -20 10 -50 32 -68 49 -20 20 -40 31 -54 29 -14
-2 -23 3 -26 15 -3 13 -5 13 -6 3z"/>
<path d="M1035 3953 c-58 -7 -75 -13 -75 -28 0 -14 -6 -17 -27 -14 -4 0 -11
-9 -15 -21 -5 -13 -13 -18 -19 -14 -8 4 -9 3 -5 -4 4 -7 2 -12 -3 -12 -6 0
-10 -3 -9 -7 3 -10 -52 -94 -71 -109 -8 -6 -11 -16 -7 -22 10 -16 -12 -64 -26
-56 -6 4 -8 3 -5 -3 4 -6 -2 -39 -13 -73 -29 -89 -40 -170 -40 -286 0 -134 6
-161 36 -167 14 -2 28 1 32 7 4 6 8 79 9 162 1 110 5 159 16 180 8 16 12 35 9
43 -3 9 0 11 8 6 10 -6 12 -2 7 15 -10 39 62 187 131 268 41 49 45 52 59 35
14 -17 14 -17 9 0 -3 9 -1 17 5 17 14 0 71 -31 84 -46 5 -6 24 -17 42 -23 17
-7 34 -19 37 -27 3 -8 10 -14 15 -14 15 0 72 -61 66 -71 -4 -5 2 -6 11 -2 13
5 15 3 9 -8 -4 -8 -4 -11 0 -6 10 9 65 -41 65 -59 0 -7 4 -16 10 -19 6 -3 7 1
4 12 -3 10 22 -36 55 -102 34 -66 61 -126 61 -133 0 -22 27 -42 54 -42 23 0
26 4 26 34 0 19 3 42 7 52 4 11 3 15 -5 10 -11 -7 -28 29 -23 53 1 7 -2 10 -7
7 -5 -3 -26 29 -47 71 -21 43 -46 86 -57 97 -10 11 -18 28 -18 38 0 11 -4 17
-10 13 -12 -8 -83 62 -75 75 3 5 0 8 -7 5 -17 -6 -71 42 -63 55 4 6 3 10 -2 9
-21 -4 -33 2 -33 16 0 8 -6 12 -13 9 -22 -8 -64 13 -93 46 -15 16 -32 30 -38
30 -6 0 -4 -5 4 -10 9 -6 10 -10 3 -10 -21 0 -43 12 -37 21 3 5 4 8 2 8 -2 -1
-16 -4 -33 -6z"/>
<path d="M2650 3880 c8 -5 20 -10 25 -10 6 0 3 5 -5 10 -8 5 -19 10 -25 10 -5
0 -3 -5 5 -10z"/>
<path d="M2566 3817 c3 -10 9 -15 12 -12 3 3 0 11 -7 18 -10 9 -11 8 -5 -6z"/>
<path d="M2490 3721 c0 -6 4 -13 10 -16 6 -3 7 1 4 9 -7 18 -14 21 -14 7z"/>
<path d="M2496 3678 c3 -5 10 -6 15 -3 13 9 11 12 -6 12 -8 0 -12 -4 -9 -9z"/>
<path d="M2884 3571 c-50 -38 -84 -83 -84 -116 l0 -25 100 0 100 0 0 79 c0 63
-3 80 -16 85 -32 12 -61 5 -100 -23z"/>
<path d="M1087 3572 c-45 -5 -63 -68 -51 -183 l7 -69 62 0 c88 0 95 4 95 54 0
111 -54 205 -113 198z"/>
<path d="M2715 2550 c-67 -13 -69 -14 -86 -36 -17 -19 -21 -38 -33 -129 -4
-29 -3 -34 4 -20 7 17 9 16 9 -10 1 -21 11 -39 31 -57 16 -14 26 -29 22 -33
-4 -4 3 -5 16 -2 14 3 20 1 15 -6 -4 -7 0 -8 11 -4 10 4 32 7 50 7 70 0 157
90 150 155 -4 46 -9 62 -22 77 -6 8 -9 18 -5 22 4 4 0 4 -10 0 -10 -3 -17 -1
-17 5 0 23 -79 41 -135 31z"/>
<path d="M1124 2538 c-3 -5 -2 -7 3 -6 4 2 10 -1 12 -7 2 -5 -9 -16 -25 -23
-16 -8 -35 -26 -43 -40 -12 -24 -32 -177 -22 -166 7 7 31 -18 25 -27 -3 -5 0
-8 7 -7 7 2 14 -4 14 -12 1 -8 7 -14 14 -12 6 1 22 -4 34 -13 12 -8 39 -15 60
-15 46 0 127 19 127 30 0 5 11 22 24 37 38 45 38 119 0 174 -15 23 -44 52 -64
64 -38 24 -98 37 -106 23 -3 -4 -10 -8 -15 -8 -6 0 -8 4 -5 8 2 4 -4 8 -15 8
-11 0 -23 -4 -25 -8z"/>
<path d="M3590 2140 c15 -10 2 -13 -52 -13 -10 0 -18 -3 -18 -7 0 -8 -103 -26
-107 -19 -1 2 -13 -7 -26 -19 -21 -20 -24 -28 -16 -51 8 -23 16 -28 44 -28 19
0 33 3 30 6 -9 8 135 43 172 41 38 -1 93 25 93 43 0 6 -7 20 -15 31 -11 14
-22 17 -49 13 -20 -3 -38 -1 -41 4 -4 5 -12 9 -18 9 -7 0 -6 -4 3 -10z"/>
<path d="M740 2132 c0 -4 -40 -8 -90 -7 -84 0 -89 -1 -95 -23 -3 -12 -1 -30 4
-40 8 -15 23 -17 112 -15 128 4 159 25 107 73 -23 21 -38 26 -38 12z"/>
<path d="M3070 1991 c-14 -3 -40 -14 -57 -24 -40 -21 -43 -50 -9 -80 26 -23
88 -25 159 -5 40 12 44 24 26 76 -13 39 -52 50 -119 33z"/>
<path d="M923 1958 c-35 -16 -43 -25 -43 -48 0 -40 21 -52 98 -57 64 -5 68 -4
95 24 25 27 26 33 17 59 -6 16 -17 32 -23 36 -23 14 -102 7 -144 -14z"/>
<path d="M713 1950 c-12 -5 -27 -18 -33 -30 -6 -11 -15 -18 -20 -15 -6 4 -7
-1 -3 -11 4 -12 3 -15 -5 -10 -7 4 -12 3 -12 -3 0 -5 -9 -12 -19 -16 -11 -3
-33 -18 -49 -33 -36 -35 -31 -75 11 -80 15 -2 27 2 27 8 0 6 5 8 10 5 6 -3 10
-1 10 4 0 6 5 11 10 11 11 0 26 11 66 47 13 12 24 19 24 15 0 -4 6 3 13 14 6
12 20 33 31 48 30 43 -4 69 -61 46z"/>
<path d="M3508 1943 c-17 -4 -33 -47 -23 -63 4 -6 12 -10 20 -10 8 0 24 -10
36 -22 12 -13 18 -16 14 -8 -7 12 -6 13 6 4 18 -15 181 -39 203 -31 9 4 16 18
16 32 0 30 -17 39 -115 59 -38 8 -86 20 -105 28 -19 8 -42 13 -52 11z"/>
<path d="M1680 1875 c0 -63 25 -118 55 -123 11 -2 23 -9 27 -15 5 -8 37 -12
87 -12 67 0 85 4 110 23 32 24 57 29 45 10 -4 -7 -3 -8 4 -4 6 4 24 -2 39 -13
35 -25 146 -47 214 -42 27 2 88 72 95 108 8 43 -12 92 -40 97 -38 7 -66 5 -72
-6 -4 -6 -3 -8 3 -5 5 3 9 -8 9 -28 -1 -19 -5 -35 -10 -35 -5 0 -6 -3 -3 -6 4
-4 13 -1 21 5 12 10 15 9 13 -7 0 -11 -6 -18 -13 -15 -7 2 -15 -1 -20 -8 -4
-8 -3 -10 4 -5 7 4 12 2 12 -3 0 -7 -24 -11 -57 -11 -65 0 -132 26 -172 66
-20 20 -32 24 -56 20 -16 -4 -32 -11 -33 -16 -2 -6 -8 -8 -13 -5 -5 4 -6 -1
-3 -9 7 -18 -20 -33 -61 -36 -57 -4 -75 0 -75 16 0 8 -4 13 -9 10 -14 -9 -34
22 -28 45 7 25 -24 59 -53 59 -18 0 -20 -7 -20 -55z"/>
<path d="M2700 1476 c-8 -25 -25 -45 -53 -63 -37 -24 -52 -27 -133 -27 -85 -1
-92 1 -125 28 -18 16 -42 42 -52 58 -16 27 -21 29 -55 23 -82 -14 -145 -17
-138 -6 4 6 3 11 -3 11 -5 0 -11 -4 -13 -9 -2 -5 -112 -12 -248 -15 -135 -4
-297 -10 -360 -15 -63 -5 -155 -7 -205 -4 -53 3 -114 0 -150 -7 -33 -7 -83
-15 -111 -19 -29 -4 -60 -13 -70 -21 -10 -8 -15 -10 -11 -3 4 6 2 15 -4 19 -7
4 -9 3 -5 -4 3 -6 -2 -19 -12 -29 -11 -10 -25 -34 -32 -53 -11 -32 -10 -40 15
-90 15 -30 42 -94 60 -142 l33 -87 -34 -26 c-27 -21 -34 -33 -34 -61 0 -42 19
-45 70 -11 44 30 110 56 169 67 25 5 55 12 66 15 14 5 16 4 7 -3 -11 -7 -11
-10 2 -15 17 -7 24 -87 8 -87 -5 0 -14 -18 -21 -41 -7 -22 -19 -43 -27 -46 -7
-3 -12 -8 -9 -12 2 -4 -9 -23 -24 -42 -38 -46 -52 -75 -45 -92 6 -17 52 -29
60 -15 3 4 10 5 16 2 6 -4 8 -2 5 3 -9 15 30 61 40 47 17 -22 119 -93 145 -99
16 -4 25 -12 21 -18 -4 -7 0 -8 12 -3 10 3 39 0 64 -8 127 -40 475 -87 644
-87 155 0 227 7 337 37 138 37 225 71 308 120 40 24 75 44 78 44 3 0 15 9 27
20 12 11 27 18 34 16 7 -3 13 2 13 11 0 12 3 14 11 6 13 -13 56 -5 63 12 4 13
-42 93 -72 124 -7 7 -11 20 -8 28 4 9 2 11 -6 7 -7 -5 -9 1 -6 20 3 14 1 26
-5 26 -19 0 0 11 27 16 14 2 26 1 26 -3 0 -5 16 -9 35 -10 19 -1 41 -8 49 -16
8 -8 28 -20 45 -27 17 -7 28 -16 25 -21 -3 -5 3 -6 12 -2 13 5 15 3 9 -7 -6
-10 -4 -12 8 -7 10 3 17 3 17 -2 0 -4 11 -6 24 -4 19 4 25 13 28 39 3 29 0 36
-23 46 -26 11 -27 14 -14 38 19 35 39 111 36 134 -2 10 2 22 8 25 12 8 22 281
9 281 -4 0 -10 11 -14 25 -3 14 -14 25 -23 26 -9 0 -29 3 -46 5 -16 2 -127 7
-246 10 l-217 6 -12 -36z"/>
<path d="M1215 859 c-4 -6 -5 -12 -2 -15 2 -3 7 2 10 11 7 17 1 20 -8 4z"/>
</g>
</svg>
